<svg xmlns="http://www.w3.org/2000/svg" viewBox="0 0 32 32" width="32" height="32">
  <defs>
    <linearGradient id="bgGrad" x1="0%" y1="0%" x2="100%" y2="100%">
      <stop offset="0%" style="stop-color:#f0f4f8;stop-opacity:1" />
      <stop offset="100%" style="stop-color:#e2e8f0;stop-opacity:1" />
    </linearGradient>
    <linearGradient id="catGrad" x1="0%" y1="0%" x2="100%" y2="100%">
      <stop offset="0%" style="stop-color:#2563eb;stop-opacity:1" />
      <stop offset="100%" style="stop-color:#1e40af;stop-opacity:1" />
    </linearGradient>
  </defs>
  
  <!-- Background -->
  <rect width="32" height="32" rx="6" fill="url(#bgGrad)"/>
  
  <!-- Cat Head Outline -->
  <path d="M8 12 L8 8 L10 8 L12 10 L20 10 L22 8 L24 8 L24 12 L22 14 L22 22 L20 24 L12 24 L10 22 L10 14 Z" 
        fill="none" stroke="url(#catGrad)" stroke-width="1.5"/>
  
  <!-- Left Ear -->
  <path d="M8 12 L10 8 L12 10" fill="none" stroke="url(#catGrad)" stroke-width="1.5"/>
  
  <!-- Right Ear -->
  <path d="M20 10 L22 8 L24 12" fill="none" stroke="url(#catGrad)" stroke-width="1.5"/>
  
  <!-- Left Eye -->
  <circle cx="13" cy="15" r="1.5" fill="url(#catGrad)"/>
  
  <!-- Right Eye with Plant -->
  <circle cx="19" cy="15" r="3" fill="#ff7f7f" opacity="0.8"/>
  <path d="M19 13 L19 17 M17 15 L19 13 L21 15 M17 17 L19 15 L21 17" 
        stroke="url(#catGrad)" stroke-width="1" fill="none"/>
  
  <!-- Nose -->
  <path d="M16 18 L15 20 L17 20 Z" fill="url(#catGrad)"/>
  
  <!-- Mouth -->
  <path d="M16 20 Q14 22 12 21 M16 20 Q18 22 20 21" 
        fill="none" stroke="url(#catGrad)" stroke-width="1"/>
</svg>